<?xml version="1.0" encoding="UTF-8" standalone="no"?>
<!-- Created with Inkscape (http://www.inkscape.org/) -->

<svg
   xmlns:dc="http://purl.org/dc/elements/1.1/"
   xmlns:cc="http://creativecommons.org/ns#"
   xmlns:rdf="http://www.w3.org/1999/02/22-rdf-syntax-ns#"
   xmlns:svg="http://www.w3.org/2000/svg"
   xmlns="http://www.w3.org/2000/svg"
   xmlns:xlink="http://www.w3.org/1999/xlink"
   xmlns:sodipodi="http://sodipodi.sourceforge.net/DTD/sodipodi-0.dtd"
   xmlns:inkscape="http://www.inkscape.org/namespaces/inkscape"
   width="100"
   height="100"
   viewBox="0 0 100 100"
   version="1.1"
   id="svg72658"
   inkscape:version="0.92.1 r15371"
   sodipodi:docname="gear.svg">
  <title
     id="title225147">gear</title>
  <defs
     id="defs72652">
    <symbol
       id="icon-cog"
       viewBox="0 0 24 28">
      <title
         id="title155894">cog</title>
      <path
         style="stroke-width:0.2645833"
         inkscape:connector-curvature="0"
         d="M 4.233333,3.704167 C 4.233333,3.12129 3.757877,2.645833 3.175,2.645833 c -0.582877,0 -1.058333,0.475457 -1.058333,1.058334 c 0,0.582877 0.475456,1.058333 1.058333,1.058333 c 0.582877,0 1.058333,-0.475456 1.058333,-1.058333 z M 6.35,3.253581 v 0.91784 c 0,0.06191 -0.04948,0.136525 -0.115888,0.148696 L 5.469202,4.436004 C 5.423694,4.568296 5.374217,4.692385 5.308071,4.812242 c 0.140494,0.20267 0.289454,0.384439 0.442383,0.570441 c 0.02487,0.02884 0.04127,0.06615 0.04127,0.103452 c 0,0.03731 -0.01243,0.06615 -0.03731,0.09499 C 5.655204,5.713413 5.097198,6.32116 4.95644,6.32116 c -0.03731,0 -0.07435,-0.01667 -0.107421,-0.03731 L 4.278577,5.837502 C 4.158721,5.899415 4.030398,5.95339 3.90234,5.994665 C 3.8735,6.246812 3.848629,6.515629 3.782483,6.763544 C 3.765815,6.82969 3.708135,6.879431 3.633788,6.879431 h -0.91784 c -0.07435,0 -0.140494,-0.05371 -0.148696,-0.124089 L 2.451365,5.994665 C 2.323306,5.95339 2.199217,5.903648 2.07936,5.841735 L 1.496483,6.284119 c -0.02884,0.02487 -0.06615,0.03731 -0.103452,0.03731 c -0.03731,0 -0.07435,-0.01667 -0.103452,-0.04551 C 1.070504,6.077479 0.78105,5.821098 0.6074833,5.581385 C 0.5868458,5.552546 0.5786438,5.519473 0.5786438,5.4864 c 0,-0.03731 0.012435,-0.06615 0.033073,-0.09498 C 0.7522104,5.201179 0.9051396,5.01941 1.045898,4.824942 C 0.9755188,4.69265 0.9178396,4.556125 0.8763,4.415631 L 0.1198563,4.303977 C 0.0494771,4.291542 0,4.225396 0,4.155281 V 3.237442 C 0,3.175529 0.0494771,3.100917 0.1116542,3.088746 L 0.8805333,2.972858 C 0.9218083,2.840567 0.9755188,2.716477 1.041665,2.592652 C 0.9011708,2.394215 0.7522104,2.208213 0.5992812,2.02221 C 0.5744105,1.99337 0.5580063,1.960297 0.5580063,1.922991 c 0,-0.03731 0.016669,-0.06615 0.037306,-0.09499 C 0.6945313,1.69148 1.252537,1.087966 1.393296,1.087966 c 0.03731,0 0.07435,0.01667 0.107421,0.04127 L 2.071158,1.571625 C 2.191015,1.509713 2.319338,1.455738 2.447396,1.414463 C 2.476236,1.162315 2.501106,0.8934979 2.567252,0.6455833 C 2.583921,0.5794375 2.6416,0.5296958 2.715948,0.5296958 h 0.91784 c 0.07435,0 0.140493,0.05371 0.148695,0.1240896 L 3.898371,1.414463 c 0.128058,0.04127 0.252148,0.09102 0.372004,0.152929 l 0.58711,-0.442384 c 0.02487,-0.02487 0.06191,-0.03731 0.09922,-0.03731 c 0.03731,0 0.07435,0.01667 0.103452,0.04127 c 0.219075,0.202671 0.50853,0.458788 0.682096,0.702734 c 0.02064,0.02487 0.02884,0.05794 0.02884,0.09102 c 0,0.03731 -0.01244,0.06615 -0.03307,0.09499 C 5.597525,2.207948 5.444596,2.389717 5.303837,2.584185 c 0.07038,0.132292 0.128059,0.268817 0.169598,0.405078 L 6.229879,3.10515 c 0.07038,0.01243 0.119856,0.07858 0.119856,0.148696 z"
         id="path155896" />
    </symbol>
  </defs>
  <sodipodi:namedview
     id="base"
     pagecolor="#ffffff"
     bordercolor="#666666"
     borderopacity="1.0"
     inkscape:pageopacity="0.0"
     inkscape:pageshadow="2"
     inkscape:zoom="8.64"
     inkscape:cx="50"
     inkscape:cy="50"
     inkscape:document-units="mm"
     inkscape:current-layer="layer1"
     showgrid="false"
     units="px"
     inkscape:pagecheckerboard="true"
     inkscape:window-width="1920"
     inkscape:window-height="1056"
     inkscape:window-x="0"
     inkscape:window-y="504"
     inkscape:window-maximized="1"
     viewbox-height="100" />
  <metadata
     id="metadata72655">
    <rdf:RDF>
      <cc:Work
         rdf:about="">
        <dc:format>image/svg+xml</dc:format>
        <dc:type
           rdf:resource="http://purl.org/dc/dcmitype/StillImage" />
        <dc:title>gear</dc:title>
      </cc:Work>
    </rdf:RDF>
  </metadata>
  <g
     inkscape:label="Ebene 1"
     inkscape:groupmode="layer"
     id="layer1"
     transform="translate(0,-270.5416)">
    <use
       id="use225133"
       transform="matrix(3.748031,0,0,3.748031,-19.27164,270.953)"
       style="fill:black;stroke:none"
       xlink:href="#icon-cog"
       x="0"
       y="0"
       width="100%"
       height="100%" />
  </g>
</svg>
