<svg xmlns="http://www.w3.org/2000/svg" id="SVGRoot" version="1.1" viewBox="0 0 100 100">
    <path stroke-width="2.6064" d="m71.294 60.414c0.63997-1.9781-0.46544-4.0144-2.3854-4.6544-1.9781-0.63998-4.0726 0.46543-4.7125 2.4435-1.92 6.225-7.68 10.413-14.196 10.413-6.5161 0-12.276-4.1889-14.196-10.414-0.64-1.978-2.734-3.083-4.654-2.443-1.9781 0.63997-3.0835 2.6763-2.4435 4.6544 2.909 9.367 11.462 15.65 21.294 15.65 9.8324 0 18.385-6.2834 21.294-15.65zm-28.741-25.308c0-4.1308-3.3162-7.447-7.447-7.447s-7.447 3.3162-7.447 7.447 3.3162 7.447 7.447 7.447 7.447-3.3162 7.447-7.447zm29.788 0c0-4.1308-3.3162-7.447-7.447-7.447s-7.447 3.3162-7.447 7.447 3.3162 7.447 7.447 7.447 7.447-3.3162 7.447-7.447zm14.894 14.894c0 20.537-16.698 37.235-37.235 37.235s-37.235-16.698-37.235-37.235 16.698-37.235 37.235-37.235 37.235 16.698 37.235 37.235zm7.447 0c0-24.668-20.014-44.682-44.682-44.682-24.668 0.0001-44.682 20.014-44.682 44.682 0.0001 24.668 20.014 44.682 44.682 44.682s44.682-20.014 44.682-44.682z"/>
</svg>
