<svg xmlns="http://www.w3.org/2000/svg" width="4037.333" height="4037.333" version="1" viewBox="0 0 3028.000000 3028.000000">
    <path d="M54.6 21.8c-1.5 11.9-3 23.2-3.2 25.1-.2 1.9-.5 4.8-.8 6.5-.6 4.1-2.3 17.8-3 24.2-.3 2.9-1.2 10.3-2.1 16.5-1.3 10.5-4.9 40.3-6 50.9-.3 2.5-.9 8.5-1.5 13.3-1 8.1-1.3 11.1-2.5 22.2-.5 4.9-1.4 13.8-2 18.5-.2 1.9-.7 6.4-1 10-.4 3.6-.8 7.8-1 9.5-.2 1.6-.7 6.4-1 10.5-.4 4.1-.8 8.2-1 9-.2.8-.6 4.9-1 9-.3 4.1-.7 9.1-1 11-.3 1.9-.7 6.4-1 10-.3 3.6-.7 8.1-1 10-.6 5.2-1.7 16.9-2 22-.2 2.5-.6 6.7-.9 9.5-.2 2.7-.8 8.4-1.1 12.5-.3 4.1-.8 9.1-1 11-.2 1.9-.6 7.5-1 12.5-.3 4.9-.8 10.1-1 11.5-.2 1.4-.6 6.3-1 11-.3 4.7-.8 11-1 14-.3 3-.7 8.9-1 13-.3 4.1-.7 10-1 13-.9 11.7-1.5 19.9-2 29-.3 5.2-.8 11.5-1 14-.3 2.5-.7 8.8-1 14-.3 5.2-.7 12.4-1 16-.2 3.6-.7 11.4-1 17.5-.3 6-.7 14.1-1 18-.6 8.5-1.3 22.6-2 40-.3 7.1-.7 16.8-1 21.5-.5 10-1.6 35.9-2 50.4-2.7 81.9-2.7 229.5 0 287.1.2 4.9.7 16 1 24.5.4 8.5.8 18.9 1 23 1 18.9 1.6 30.1 2.1 37 .3 4.2.7 10 .8 13 .5 7.9 1.6 22.5 2.1 29.5.3 3.3.7 9.1 1 13 .3 3.8.8 9.2 1 12 1.1 12.1 1.6 17.3 2 22 .3 2.7.7 7.7 1 11 .3 3.3.7 7.9 1 10.2.8 6.6 1.4 12.2 2 18.8.3 3.3.7 7.6 1 9.5.8 5.6 1.6 13.2 2 17.5.2 2.2.6 5.6.8 7.5.3 1.9.8 6.2 1.2 9.5.4 3.3.9 6.8 1.1 7.9.2 1 .6 4.4 1 7.5.3 3.1.8 6.3.9 7.1.2.9.6 4.3 1 7.5.4 3.3.9 6.7 1 7.5.3 1.9 1.3 8.4 2 13.5.3 2.2 1 6.7 1.5 10s1.2 7.8 1.5 10c.3 2.2 1.2 7.6 2 12s1.6 9.8 2 12c.5 3.2 3 17.4 7.9 44.5 1.5 8.5 10.2 49.3 13.7 64.5 2.2 9.9 4.2 18.7 4.4 19.5.2.8 2.2 8.7 4.5 17.5 3.9 15 4.1 16.6 3.5 25.4-.4 5.1-.8 10.1-1 11-2.6 13.7-2.6 115.2 0 137.1.2 1.4.6 6.1 1 10.5.3 4.4.8 9.6 1 11.5.2 1.9.7 6.2 1.1 9.5 1 9.1 1.1 10.6 1.9 16 .3 2.7.8 6.6 1.1 8.5.4 3.3.7 5.1 1.9 12.5.3 1.6.7 5.5 1.1 8.5.3 3 .7 5.7.9 6.1.2.3.7 2.8 1.1 5.5.3 2.7.8 5.8 1 6.9.3 1.1.7 3.6 1 5.5.3 1.9.7 4.2.9 5 .3.8.7 3.3 1 5.5.4 2.2 1 5.6 1.5 7.5.5 1.9 1.2 4.8 1.4 6.5 1.3 7.2 1.4 7.5 8.1 35.5 4.2 17.8 13.7 51.8 16.9 60.9 2.2 6 2.1 6.1-2 1.6-4-4.4-15-16.3-39.3-42.4-5.1-5.5-10.1-11-11.1-12.2-1-1.1-7-7.5-13.3-14.2-13.6-14.6-21.1-22.6-26.6-28.7-3.9-4.2-4.1-4.4-4.2-2 0 1.4-.2 3.2-.3 4-.2.8-.7 5.1-1 9.5-.4 4.4-.9 9.6-1.1 11.5-2.7 27.2-2.8 96.3 0 122.5.2 2.2.7 6.7 1 10 .7 6.8 1.4 12.8 2 16.5.2 1.4.9 6.1 1.5 10.5 2.9 20.1 9.5 50.1 15.6 70.9 3.7 12.6 7 22.8 8.4 26.1.5 1.1 2.1 5.4 3.6 9.5 5.6 15.6 14.7 35.5 24.4 53.5 3.6 6.9 19.2 31.4 22 34.8 4.6 5.5 9 11.7 8.3 11.7-.4 0-2.6-.5-4.8-1.1-2.2-.5-5.1-1.2-6.5-1.5-12.7-2.6-36.8-7.7-42-8.9-8-1.8-31.3-6.7-38.5-8.1-1.1-.2-3.2-.7-4.8-1-1.7-.4-2.7-.2-2.7.5 0 1.8 5.6 24.9 9.1 37.6 12.1 44.3 28.5 90.1 48 134.4 6.1 13.8 22.8 47.6 28.9 58.6 7.2 12.9 14.8 26.2 17.3 30.2 1.5 2.4 2.7 4.4 2.7 4.7 0 .2 2.8 5.2 6.1 11.2 13.6 24 30 46 58.3 77.9 18.5 20.8 58.5 60.8 80 80 .6.5 5.1 4.6 10.1 9 4.9 4.4 9.9 8.9 11.1 10 1.1 1.1 3.4 3.1 5 4.4 1.6 1.3 5.8 5 9.4 8.1 6.5 5.7 28 23.6 35.7 29.8 4.2 3.4 7.8 6.3 10 8.2 2.8 2.4 38.7 30.1 47.3 36.6 22.7 17 40.8 30 69 49.4 6.3 4.3 12 8.3 12.5 8.7 3.4 2.8 59.6 39.1 73.9 47.8 24.4 14.9 43.8 26.5 44.1 26.5.3 0 2.9 1.6 5.9 3.5 3 1.9 5.8 3.5 6.1 3.5.4 0 1.9.8 3.3 1.9 1.5 1 4.8 3 7.5 4.5 11.2 6.2 14.6 8.1 22.2 12.4 41.3 23.3 115.5 60.5 164 82.2 2.8 1.2 7.3 3.2 10 4.5 2.8 1.2 14.9 6.4 27 11.5s23.4 9.8 25 10.5c1.7.7 9.5 3.9 17.5 7 8 3.2 15.9 6.3 17.5 7 1.7.7 10 3.9 18.5 7s16.4 6 17.5 6.5c2.4 1.1 12.2 4.5 30 10.6 7.2 2.5 13.9 4.9 15 5.4 3 1.3 30.7 10.1 52.5 16.9 18.4 5.6 32.7 9.8 58.5 17 15.6 4.3 63.9 16.3 71.5 17.7 1.4.3 4.1.9 6 1.4 2.9.8 10.4 2.4 25.5 5.6 1.1.2 3.1.6 4.5.9l22 4.4c8.5 1.6 16.9 3.2 18.5 3.5 14.4 2.5 38.6 6.6 41 7 1.7.3 5 .8 7.5 1.1 2.5.3 5.6.7 7 1 1.4.2 4.3.7 6.5 1 2.2.3 5.1.8 6.5 1 2.4.4 6.9.9 17 2.1 2.5.3 5.6.7 7 .9 2.8.5 9.1 1.2 16 2 2.5.3 6.3.7 8.5 1 5.3.7 11.4 1.3 20.5 2 4.1.3 8.4.8 9.5 1 1.1.2 7 .7 13 1 6.1.4 12.1.9 13.5 1.1 1.4.2 7.7.7 14 1 6.3.3 13.1.7 15 .9 23.6 2.7 130.7 2.6 175.5 0 15.7-1 35.7-2.4 41-3 2.2-.2 7.6-.7 12-1 4.4-.3 11.4-1 15.5-1.5s10.9-1.2 15-1.6c4.1-.3 7.7-.7 8-.9.3-.2 4.1-.6 8.5-.9 4.4-.4 8.7-.9 9.5-1.1.8-.2 3.8-.6 6.5-1 8.5-1 25.6-3.4 29.5-4.1 1.4-.2 7-1.1 12.5-1.9 5.5-.8 11.6-1.8 13.5-2.1 5.8-.9 20.3-3.4 23-3.9 1.4-.3 4-.8 5.9-1.1 4.2-.7 3-.5 27.8-5.4 21.2-4.2 34.2-7 53.8-11.6 6.1-1.4 11.9-2.7 13-3 1.1-.2 8.3-2 16-3.9 7.7-2 14.7-3.7 15.5-3.9 8.3-2.1 23.2-6.1 35.5-9.6 8.3-2.4 18.6-5.3 23-6.5 37.5-10.6 136-44.3 159.3-54.5 1.2-.6 3.2-1.4 4.5-1.9 10.1-4 16.7-6.6 19.2-7.7 1.7-.7 8.2-3.3 14.5-5.9 6.3-2.5 13-5.2 14.8-6 4.9-2.2 8.3-3.7 25.2-11.1 8.5-3.7 18.7-8.1 22.5-9.9 3.9-1.8 11-5.1 15.8-7.4 4.9-2.3 9.1-4.1 9.3-4.1.8 0 71.8-35.4 85.9-42.8 16.3-8.5 30.7-16.2 32-17.2.6-.4 4.6-2.6 9-5 4.4-2.3 18.3-10.2 30.8-17.4 28.3-16.2 26.1-14.9 44.7-26.3 8.5-5.2 16.4-10 17.5-10.6 1.1-.7 2.2-1.4 2.5-1.7.3-.3 2.1-1.4 4-2.4 1.9-1.1 6.8-4.1 10.8-6.8 4-2.6 7.7-4.8 8.2-4.8.6 0 1-.5 1-1 0-.6.4-1 .9-1s4-2 7.8-4.5c3.7-2.5 7.5-5 8.3-5.5 30.2-19.3 84.2-57.2 120-84.4 26.7-20.2 82.8-65.7 92.6-75.1 1.2-1.2 11.7-10.4 15.4-13.5 3.5-3 21.7-19.9 31.9-29.5 13-12.4 36.7-36.2 45.7-46.1 4.5-4.9 9.2-10.1 10.5-11.5 26.8-28.9 51.9-62.3 63.3-83.9 2.2-4.3 6.9-12.5 10.2-18.2 24.9-41.9 49.8-94.6 67.1-141.8 10.6-28.9 24.7-74.1 28.8-92.5.3-1.1 1.4-5.8 2.5-10.5 3-12.4 3.1-13 2.6-13s-38.1 7.9-40.1 8.4c-.9.3-6.6 1.4-10.5 2.1-.8.2-3.5.8-6 1.4-4.2.9-6.8 1.5-13 2.7-1.4.3-3.2.7-4 .9-.8.3-3.3.7-5.5 1.1-2.2.3-4.3.8-4.6 1-.3.2-2.1.6-4 .9-1.9.3-5.1 1-7.3 1.6-2.1.6-4 .8-4.2.6-.3-.3 1.7-3.2 4.3-6.5 23.6-29.9 44.7-72.3 59.4-119.2 3.6-11.1 10.4-36.6 11.5-42.9.3-1.2 1.1-5.1 1.9-8.5.7-3.3 1.7-8.1 2-10.6.4-2.5 1-6.3 1.5-8.5s1.2-6.3 1.5-9c.3-2.8.8-6.1 1-7.5.7-4.1 1.3-8.2 2-14.5.3-3.3.8-7.8 1.1-10 3.4-28.4 3.9-92.2 1-123-.3-2.2-.7-6.9-1-10.5-1.5-17.4-1.9-20.5-2.3-21-.3-.3-2.7 2-5.5 5-5.7 6.2-25.1 27-34.4 37-3.3 3.6-8.2 8.9-11 11.9-2.7 3-7.9 8.7-11.6 12.6-3.7 3.9-7.6 8.2-8.8 9.5-1.2 1.4-6.9 7.6-12.7 13.7-5.8 6.2-11.2 12.1-11.9 13-2.1 2.7-1.7 1.1 2.6-12.5 6-19.1 17.7-64.1 20.3-78.2.3-1.4 1.9-9.5 3.7-18 1.7-8.5 3.2-16.6 3.4-18 .4-2.8 2.4-14.5 3-17.5.2-1.1.7-4 1-6.5.3-2.5.8-5.4 1-6.5.2-1.1.7-4.7 1.1-8 .4-3.2.8-6.6 1-7.5.5-2.6 1.4-10.1 2.5-21 .6-5.8 1.2-11.9 1.5-13.5 2.3-17.8 3.9-53.7 4-89.5 0-32.3-.7-48.2-3-73.5-.3-3.9-.8-8.6-.9-10.6-.2-1.9 1.6-11.2 4-20.5s4.6-18 4.9-19.4c.2-1.4 2-9.3 3.9-17.5 1.9-8.3 3.8-16.5 4.1-18.4.3-1.9.7-3.7.9-4 .2-.3.7-2.4 1-4.6.4-2.2 1.1-5.6 1.6-7.5.5-1.9 1.1-4.9 1.4-6.5.4-2.7 2.8-15.4 4.1-21.5.3-1.4.8-4 1.1-5.9.3-1.8.8-4.3 1-5.5.2-1.1.8-4.6 1.4-7.6.6-3 1.2-6.6 1.5-8 .7-3.4 7.3-43.5 8-48.5.3-2.2.8-5.1 1-6.5.2-1.4.7-4.5 1-7 .3-2.5 1-7 1.5-10s1.2-7.9 1.5-10.9c.4-3 .8-6.2 1-7.1.2-.9.6-4.1.9-7.1.3-3 .8-6.5 1-7.9.2-1.4.7-5.2 1.1-8.5.6-6 1.1-9.5 1.9-15.8.3-1.7.8-5.7 1.1-8.7 1-10.1 1.6-15.5 2-18 .2-1.4.7-5.7 1-9.5.3-3.9.7-8.6 1-10.6.2-1.9.7-6.4 1-10 .3-3.5.7-8 1-9.9.2-1.9.7-7.1 1-11.5.4-4.4.8-9.6 1-11.5.2-1.9.6-7.1.9-11.5.3-4.4.8-10.7 1.1-14 .3-3.3.7-9.3 1-13.4.3-4.1.7-10.6 1-14.5 1.5-21.2 3.1-51.6 4-74.6.4-8.5.8-18.9 1-23 1.2-23.9 2-78.4 2-142 0-82.8-1-129.1-4-197-.2-5.2-.7-15.4-1-22.5-.3-7.2-.7-16.4-1-20.5-.3-4.1-.7-12-1-17.5-.7-14.3-2.2-38.7-3-50-.2-3.3-.7-10.1-1-15-.3-5-.8-11.7-1-15-.2-3.3-.7-10.1-1-15-.4-5-.8-10.7-1-12.7-.2-2-.7-7.8-1-13-.3-5.1-.8-10.9-1-12.8-.2-1.9-.6-7.8-1-13-.3-5.3-.8-11.1-1-13-.3-1.9-.7-7-1.1-11.5-.3-4.4-.7-9.6-.8-11.5-.2-1.9-.7-7.3-1-12-.4-4.7-.9-9.6-1.1-11-.2-1.4-.7-6.3-1-11-.4-4.7-.8-9.6-1-11-.2-1.4-.6-6.1-1-10.5-.3-4.4-.8-9.1-1-10.5-.2-1.4-.6-5.7-1-9.5-.3-3.9-.8-9-1.1-11.5-1.8-16.9-2.2-21.5-2.9-28-.2-3-.9-9.6-1.5-14.5-.5-5-1.2-11.7-1.5-15-.3-3.3-.8-7.5-1-9.3-.3-1.9-.8-6.2-1.1-9.5-.3-3.4-.7-6.9-.9-7.7-.2-.8-.7-4.9-1-9-.3-4.1-.8-8.2-1-9-.2-.8-.7-4.4-1-8-.7-7.5-3.3-29.3-3.9-33-.3-1.4-.7-5.4-1.1-9-.7-6.7-.9-8.3-1.9-16-.3-2.5-1-8.3-1.6-13-1.6-13.5-2-16.3-2.4-19.5-1.1-7.1-4.4-33.1-5.2-40-.7-6.2-1.1-6.7-4.1-6.1-1.6.3-4.8.8-7.3 1.1-2.5.4-5.6.8-7 1-1.4.2-4.5.6-7 .9-2.5.3-5.6.8-7 1.1-2.2.4-4.2.7-14 2.1-5.7.8-8 1.2-18 2.9-5.2.9-10.8 1.8-12.5 2.1-3.5.5-13 2.2-16.1 2.8-1.2.2-3.7.7-5.5 1-1.9.3-8 1.4-13.7 2.5-5.6 1.2-11.5 2.3-13 2.6-5.2.9-12.8 2.4-29.7 6-20.2 4.3-20.2 4.3-22.3 4.9-.9.3-3.2.8-5.1 1.1-1.8.3-9.9 2.1-18 4.1-8 1.9-15.5 3.7-16.6 3.9-1.1.2-2 .4-2 .5 0 .1-1.1.4-2.5.6-4.6.8-59.2 15.2-77 20.2-49.4 14-99.5 29.9-142.5 45.2-33.5 11.9-71.6 26-81 30-1.1.5-13.7 5.6-28 11.4-24.6 9.9-59.3 24.6-82.5 35.1-5.8 2.6-12.5 5.6-15 6.7-2.5 1.1-9.1 4.2-14.8 6.9-5.7 2.7-10.5 4.9-10.7 4.9-.5 0-40.6 19.5-59.5 28.9-21.3 10.7-57.4 29.4-69.5 36.1-2.7 1.5-8.1 4.4-12 6.5-26.1 14.1-76.2 43-104.8 60.6-4.9 3-10 6.1-11.5 7-17.1 10.2-70.7 45.1-95.7 62.2-7.7 5.3-14.9 10.2-15.9 10.9-1 .7-4.1 2.9-6.7 4.8-2.7 1.9-8.7 6.2-13.4 9.5-4.7 3.3-12.7 9-17.8 12.8-5 3.7-10.3 7.5-11.6 8.5-1.4.9-3.3 2.4-4.4 3.3-1.8 1.4-2.8 1.4-8.1.3-3.4-.7-7.9-1.5-10.1-1.8-2.2-.4-8.7-1.5-14.5-2.6-5.8-1.1-12.3-2.2-14.5-2.5-4.8-.7-7.9-1.2-12-1.9-6.5-1.1-22.2-3.5-26.5-4.1-2.5-.3-5.6-.8-7-1-1.4-.2-5-.6-8-1s-6.6-.8-8-1c-1.4-.2-5-.7-8-1-3-.3-6.6-.8-8-1-2.7-.4-8.2-1.1-17.5-2-3.3-.3-7.6-.8-9.5-1-10.7-1.2-21.4-2.2-32.5-3-4.4-.3-9.3-.8-11-1-1.6-.2-7.5-.6-13-1-5.5-.3-11.8-.8-14-1-2.2-.2-10.3-.7-18-1-7.7-.4-16-.8-18.5-1-32-2.6-164.7-2.6-206-.1-3.6.3-11.7.7-18 1.1-6.3.3-14 .8-17 1-3 .2-9.3.7-14 1-19.3 1.4-26.4 2-37 3-2.5.3-7.4.7-11 1-3.6.3-10.1 1-14.5 1.5s-10.7 1.2-14 1.5c-3.3.4-7.1.8-8.5 1-1.4.2-6.5.9-11.5 1.5-12.6 1.5-16.6 2-19.5 2.5-1.4.2-4.5.7-7 1-7.3 1-16.5 2.4-31.5 4.9-4.9.8-11 1.8-13.5 2.1-2.5.4-6.4 1.1-8.8 1.6-2.3.5-5.9 1.2-8 1.5-2 .3-7.9 1.4-13.1 2.4l-9.5 1.8-13.8-10.2c-15.9-11.7-41.3-29.8-54.3-38.7-19.3-13.1-71.3-47.4-79.8-52.5-2.7-1.6-5.9-3.6-7.2-4.4-3-1.9-25.2-15.7-30.8-19.1-21.5-13.2-77-45-99.2-56.9-4.4-2.4-8.4-4.6-9-5-.5-.4-7.3-4-15-8s-16.2-8.5-19-10c-2.7-1.5-7.5-3.9-10.5-5.5-3-1.5-6.4-3.2-7.5-3.8-8.8-4.8-64.6-32.1-81.5-39.9-3.6-1.7-9.4-4.4-13-6-85.4-39.7-183.5-78-278.1-108.6-16.2-5.3-58.2-18.1-61.1-18.7-.9-.2-6.9-1.9-13.5-3.8-12.4-3.7-46.9-13.1-55.8-15.3-.5-.1-6.6-1.6-13.5-3.4-6.9-1.7-13.2-3.3-14-3.5-.8-.2-11.4-2.7-23.5-5.5s-23.1-5.4-24.5-5.6c-1.4-.2-5.4-1.1-9-1.9-19-4.2-51.3-10.7-65-13-3.1-.5-17.7-3.2-22.2-4-.9-.2-3.8-.6-6.5-1-8.1-1.1-10.7-1.6-12.3-2-.8-.2-3.1-.6-5-.9-1.9-.3-7.8-1.2-13-2s-11.5-1.7-14-2c-2.5-.3-5.4-.8-6.5-1-1.2-.2-4.8-.7-8-1.1-3.3-.4-7.1-.9-8.5-1.1L57.4 0l-2.8 21.8z"/>
</svg>
