<svg id="SVGRoot" xmlns="http://www.w3.org/2000/svg" version="1.1" viewBox="0 0 100 100">
 <g aria-label="ï³" transform="scale(1.0151 .98512)">
  <path stroke-width="2.2543" d="m13.832 89.4v-14.492h14.492v14.492zm17.712 0v-14.492h16.102v14.492zm-17.712-17.712v-16.102h14.492v16.102zm17.712 0v-16.102h16.102v16.102zm-17.712-19.322v-14.492h14.491v14.492zm37.034 37.034v-14.492h16.102v14.492zm-19.322-37.034v-14.492h16.102v14.492zm38.644 37.034v-14.492h14.492v14.492zm-19.322-17.712v-16.102h16.102v16.102zm-17.712-43.475c0 0.85541-0.75477 1.6102-1.6102 1.6102h-3.2204c-0.85541 0-1.6102-0.75477-1.6102-1.6102v-14.492c0-0.85541 0.75478-1.6102 1.6102-1.6102h3.2204c0.85541 0 1.6102 0.75477 1.6102 1.6102zm37.034 43.475v-16.102h14.492v16.102zm-19.322-19.322v-14.492h16.102v14.492zm19.322 0v-14.492h14.492v14.492zm1.6102-24.153c0 0.85541-0.75477 1.6102-1.6102 1.6102h-3.2204c-0.85541 0-1.6102-0.75477-1.6102-1.6102v-14.492c0-0.85541 0.75478-1.6102 1.6102-1.6102h3.2204c0.85541 0 1.6102 0.75477 1.6102 1.6102zm19.323-3.221c0-3.5223-2.9184-6.4407-6.4407-6.4407h-6.441v-4.8305c0-4.428-3.6229-8.0509-8.0509-8.0509h-3.2204c-4.428 0-8.0509 3.6229-8.0509 8.0509v4.8305h-19.322v-4.8305c0-4.428-3.6229-8.0509-8.0509-8.0509h-3.2204c-4.428 0-8.0509 3.6229-8.0509 8.0509v4.8305h-6.4407c-3.5223 0-6.4407 2.9185-6.4407 6.4407v64.407c0 3.5223 2.9185 6.4407 6.4407 6.4407h70.848c3.5223 0 6.4407-2.9184 6.4407-6.4407z"/>
 </g>
</svg>
