<svg id="SVGRoot" xmlns="http://www.w3.org/2000/svg" version="1.1" viewBox="0 0 100 100">
 <g aria-label="">
  <path stroke-width="2.3574" d="m23.058 60.103c0 3.7361-2.9994 6.7355-6.7355 6.7355s-6.7355-2.9994-6.7355-6.7355 2.9994-6.7355 6.7355-6.7355 6.7355 2.9994 6.7355 6.7355zm10.103-23.574c0 3.7361-2.9994 6.7355-6.7355 6.7355s-6.7355-2.9994-6.7355-6.7355 2.9994-6.7355 6.7355-6.7355 6.7355 2.9994 6.7355 6.7355zm22.522 25.311c3.4204 2.3679 5.2095 6.6829 4.1044 10.945-1.4208 5.3674-6.946 8.6298-12.366 7.2091-5.367-1.421-8.629-6.946-7.209-12.366 1.1577-4.2623 4.7885-7.1565 8.9456-7.4722l5.3147-20.101c0.47359-1.7891 2.3153-2.8942 4.1044-2.4206 1.7891 0.47359 2.8415 2.3153 2.4206 4.1044zm34.73-1.7365c0 3.7361-2.9994 6.7355-6.7355 6.7355s-6.7355-2.9994-6.7355-6.7355 2.9994-6.7355 6.7355-6.7355 6.7355 2.9994 6.7355 6.7355zm-33.678-33.678c0 3.7361-2.9994 6.7355-6.7355 6.7355s-6.7355-2.9994-6.7355-6.7355 2.9994-6.7355 6.7355-6.7355 6.7355 2.9994 6.7355 6.7355zm23.574 10.103c0 3.7361-2.9994 6.7355-6.7355 6.7355s-6.7355-2.9994-6.7355-6.7355 2.9994-6.7355 6.7355-6.7355 6.7355 2.9994 6.7355 6.7355zm16.839 23.574c0-25.995-21.153-47.148-47.148-47.148s-47.148 21.154-47.148 47.148c0 9.0508 2.5784 17.839 7.4196 25.416 0.63145 0.94718 1.6839 1.526 2.8415 1.526h73.775c1.1577 0 2.2101-0.57883 2.8415-1.526 4.8411-7.63 7.4196-16.365 7.4196-25.416z"/>
 </g>
</svg>
