<svg xmlns="http://www.w3.org/2000/svg" version="1.1" viewBox="0 0 100 100">
    <g transform="translate(0 -270.54)">
        <g aria-label="ï‹">
            <path fill="deepskyblue" stroke-width="2.2992" d="m89.415 330.4h-78.83v9.8537c0 5.8506 2.5661 11.034 6.5691 14.678v9.5458c0 1.1291 0.7185 2.0528 1.6423 2.0528h3.2846c0.92378 0 1.6423-0.9237 1.6423-2.0528v-5.6453c2.0528 0.7185 4.2597 1.129 6.5691 1.129h39.415c2.3094 0 4.5163-0.4105 6.5691-1.129v6.0559c0 0.9237 0.7185 1.6422 1.6423 1.6422h3.2846c0.92378 0 1.6423-0.7185 1.6423-1.6422v-9.9564c4.003-3.6438 6.5691-8.8272 6.5691-14.678zm-49.269-21.35c0-0.9238-0.7185-1.6423-1.6423-1.6423-0.92378 0-1.6423 0.7185-1.6423 1.6423s0.7185 1.6423 1.6423 1.6423c0.92378 0 1.6423-0.7185 1.6423-1.6423zm3.2846-3.2846c0-0.9237-0.7185-1.6422-1.6423-1.6422-0.92378 0-1.6423 0.7185-1.6423 1.6422 0 0.9238 0.7185 1.6423 1.6423 1.6423 0.92378 0 1.6423-0.7185 1.6423-1.6423zm-3.2846-3.2845c0-0.9238-0.7185-1.6423-1.6423-1.6423-0.92378 0-1.6423 0.7185-1.6423 1.6423s0.7185 1.6423 1.6423 1.6423c0.92378 0 1.6423-0.7185 1.6423-1.6423zm6.5691 0c0-0.9238-0.71849-1.6423-1.6423-1.6423-0.92378 0-1.6423 0.7185-1.6423 1.6423s0.71849 1.6423 1.6423 1.6423c0.92379 0 1.6423-0.7185 1.6423-1.6423zm-3.2846-3.2846c0-0.9238-0.7185-1.6423-1.6423-1.6423-0.92378 0-1.6423 0.7185-1.6423 1.6423s0.7185 1.6423 1.6423 1.6423c0.92378 0 1.6423-0.7185 1.6423-1.6423zm-3.2846-3.2845c0-0.9238-0.7185-1.6423-1.6423-1.6423-0.92378 0-1.6423 0.7185-1.6423 1.6423 0 0.9237 0.7185 1.6422 1.6423 1.6422 0.92378 0 1.6423-0.7185 1.6423-1.6422zm55.837 26.276c0-0.9238-0.7185-1.6423-1.6423-1.6423h-77.186v-32.846c0-3.6438 2.9253-6.5691 6.5691-6.5691 1.7449 0 3.3359 0.6671 4.5163 1.7962-1.8989 3.4385-1.591 7.7495 0.87246 10.88l-1.1291 1.1291c-0.30793 0.3079-0.30793 0.8211 0 1.129l2.1555 2.1555c0.30792 0.3079 0.82113 0.3079 1.1291 0l16.115-16.115c0.30793-0.308 0.30793-0.8212 0-1.1291l-2.1555-2.1555c-0.30793-0.3079-0.82114-0.3079-1.1291 0l-1.1291 1.1291c-2.8227-2.2068-6.6204-2.6687-9.8024-1.3857-2.4121-2.4634-5.748-4.0031-9.4431-4.0031-7.2363 0-13.138 5.902-13.138 13.138v32.846h-4.9265c-0.92378 0-1.6423 0.7185-1.6423 1.6423v3.2846c0 0.9238 0.7185 1.6423 1.6423 1.6423h88.684c0.92378 0 1.6423-0.7185 1.6423-1.6423zm-45.982-23.02c0-0.9238-0.7185-1.6423-1.6423-1.6423-0.92378 0-1.6423 0.7185-1.6423 1.6423s0.7185 1.6423 1.6423 1.6423c0.924 0 1.642-0.71 1.642-1.64zm-3.2846-3.2845c0-0.9238-0.71849-1.6423-1.6423-1.6423-0.92378 0-1.6423 0.7185-1.6423 1.6423 0 0.9237 0.71849 1.6422 1.6423 1.6422 0.92379 0 1.6423-0.7185 1.6423-1.6422zm-3.2846-3.2846c0-0.9238-0.7185-1.6423-1.6423-1.6423-0.92378 0-1.6423 0.7185-1.6423 1.6423s0.7185 1.6423 1.6423 1.6423c0.92378 0 1.6423-0.7185 1.6423-1.6423zm9.8537 3.2846c0-0.9238-0.7185-1.6423-1.6423-1.6423-0.924 0-1.642 0.71-1.642 1.64 0 0.9237 0.7185 1.6422 1.6423 1.6422 0.92378 0 1.6423-0.7185 1.6423-1.6422zm-3.284-3.29c0-0.9238-0.7185-1.6423-1.6423-1.6423-0.92378 0-1.6423 0.7185-1.6423 1.6423s0.7185 1.6423 1.6423 1.6423c0.924 0.01 1.642-0.71 1.642-1.64zm-3.2846-3.2846c0-0.9237-0.71849-1.6422-1.6423-1.6422-0.92378 0-1.6423 0.7185-1.6423 1.6422 0 0.9238 0.71849 1.6423 1.6423 1.6423 0.92379 0 1.6423-0.7185 1.6423-1.6423zm9.8537 3.2846c0-0.9238-0.71849-1.6423-1.6423-1.6423-0.92379 0-1.6423 0.7185-1.6423 1.6423s0.71849 1.6423 1.6423 1.6423c0.92378 0 1.6423-0.7185 1.6423-1.6423zm-3.2846-3.2846c0-0.9237-0.7185-1.6422-1.6423-1.6422-0.924 0-1.642 0.71-1.642 1.64 0 0.9238 0.7185 1.6423 1.6423 1.6423 0.92378 0 1.6423-0.7185 1.6423-1.6423zm6.5691 0c0-0.9237-0.7185-1.6422-1.6423-1.6422-0.92378 0-1.6423 0.7185-1.6423 1.6422 0 0.9238 0.7185 1.6423 1.6423 1.6423 0.92378 0 1.6423-0.7185 1.6423-1.6423z"/>
        </g>
    </g>
</svg>
