<svg id="SVGRoot" xmlns="http://www.w3.org/2000/svg" version="1.1" viewBox="0 0 100 100">
 <g aria-label="">
  <path stroke-width="2.6292" d="m90.788 82.396l-29.52-46.54v-23.417h3.756c2.0541 0 3.756-1.702 3.756-3.756 0-2.0541-1.702-3.756-3.756-3.756h-30.048c-2.0541 0-3.756 1.702-3.756 3.756 0 2.0541 1.702 3.756 3.756 3.756h3.756v23.417l-29.52 46.54c-4.4019 6.984-1.2914 12.677 6.984 12.677h67.609c8.275 0 11.386-5.6928 6.9839-12.677zm-45.718-42.549l1.1738-1.8193v-25.588h7.5121v25.588l1.1738 1.8193 15.963 25.177h-41.786z"/>
 </g>
</svg>
