<?xml version="1.0" encoding="UTF-8" standalone="no"?>
<svg
   xmlns:dc="http://purl.org/dc/elements/1.1/"
   xmlns:cc="http://creativecommons.org/ns#"
   xmlns:rdf="http://www.w3.org/1999/02/22-rdf-syntax-ns#"
   xmlns:svg="http://www.w3.org/2000/svg"
   xmlns="http://www.w3.org/2000/svg"
   xmlns:xlink="http://www.w3.org/1999/xlink"
   id="svg8"
   version="1.1"
   viewBox="0 0 26.458333 26.458334"
   height="100"
   width="100">
  <defs
     id="defs2">
    <symbol
       viewBox="0 0 22 28"
       id="icon-trash-o">
      <title
         id="title5071">trash-o</title>
      <path
         id="path5073"
         d="m 2.1166667,3.0427083 v 2.38125 c 0,0.074348 -0.057944,0.1322917 -0.1322917,0.1322917 H 1.7197917 C 1.6454437,5.55625 1.5875,5.4983062 1.5875,5.4239583 v -2.38125 c 0,-0.074348 0.057944,-0.1322916 0.1322917,-0.1322916 H 1.984375 c 0.074348,0 0.1322917,0.057944 0.1322917,0.1322916 z m 1.0583333,0 v 2.38125 C 3.175,5.4983062 3.1170562,5.55625 3.0427083,5.55625 H 2.778125 c -0.074348,0 -0.1322917,-0.057944 -0.1322917,-0.1322917 v -2.38125 c 0,-0.074348 0.057944,-0.1322916 0.1322917,-0.1322916 h 0.2645833 c 0.074348,0 0.1322917,0.057944 0.1322917,0.1322916 z m 1.0583333,0 v 2.38125 c 0,0.074348 -0.057944,0.1322917 -0.1322916,0.1322917 H 3.8364583 c -0.074348,0 -0.1322916,-0.057944 -0.1322916,-0.1322917 v -2.38125 c 0,-0.074348 0.057944,-0.1322916 0.1322916,-0.1322916 h 0.2645834 c 0.074348,0 0.1322916,0.057944 0.1322916,0.1322916 z M 4.7625,6.0359396 V 2.1169312 H 1.0583333 v 3.9190084 c 0,0.1984375 0.1116542,0.314325 0.1322917,0.314325 h 3.4395833 c 0.020638,0 0.1322917,-0.1158875 0.1322917,-0.314325 z M 1.984375,1.5875 H 3.8364583 L 3.6380208,1.1038417 C 3.6255854,1.0871729 3.5885437,1.0625667 3.5676417,1.0583333 H 2.2571604 c -0.024871,0.00423 -0.057944,0.02884 -0.070379,0.045508 z M 5.8208333,1.7197917 V 1.984375 c 0,0.074348 -0.057944,0.1322917 -0.1322916,0.1322917 H 5.2916667 V 6.035675 c 0,0.4548187 -0.2976563,0.8432271 -0.6614584,0.8432271 H 1.190625 c -0.36380208,0 -0.66145833,-0.3720042 -0.66145833,-0.8268229 V 2.1164021 h -0.396875 C 0.05794375,2.1164021 0,2.0584583 0,1.9841104 V 1.7195271 C 0,1.6451792 0.05794375,1.5872354 0.13229167,1.5872354 H 1.4097 L 1.6991542,0.8969375 C 1.7819687,0.69426667 2.0298833,0.52890208 2.2489583,0.52890208 H 3.571875 c 0.219075,0 0.4672542,0.16536459 0.5498042,0.36803542 l 0.2894541,0.6902979 h 1.2774084 c 0.074348,0 0.1322916,0.057944 0.1322916,0.1322917 z"
         style="stroke-width:0.26458332" />
    </symbol>
  </defs>
  <metadata
     id="metadata5">
    <rdf:RDF>
      <cc:Work
         rdf:about="">
        <dc:format>image/svg+xml</dc:format>
        <dc:type
           rdf:resource="http://purl.org/dc/dcmitype/StillImage" />
        <dc:title></dc:title>
      </cc:Work>
    </rdf:RDF>
  </metadata>
  <g
     transform="translate(0,-270.54165)"
     id="layer1">
    <use
       height="100%"
       width="100%"
       y="0"
       x="0"
       xlink:href="#icon-trash-o"
       style="fill:#000000;stroke:none"
       transform="matrix(4.2709759,0,0,4.2709759,-10.624195,268.82254)"
       id="use14012" />
  </g>
</svg>
