<?xml version="1.0" encoding="UTF-8" standalone="no"?>
<svg
   xmlns:dc="http://purl.org/dc/elements/1.1/"
   xmlns:cc="http://creativecommons.org/ns#"
   xmlns:rdf="http://www.w3.org/1999/02/22-rdf-syntax-ns#"
   xmlns:svg="http://www.w3.org/2000/svg"
   xmlns="http://www.w3.org/2000/svg"
   xmlns:xlink="http://www.w3.org/1999/xlink"
   id="svg72658"
   version="1.1"
   viewBox="0 0 100 100"
   height="100"
   width="100">
  <title
     id="title298993">pencil</title>
  <defs
     id="defs72652">
    <symbol
       viewBox="0 0 24 28"
       id="icon-pencil">
      <title
         id="title229950">pencil</title>
      <path
         id="path229952"
         d="M 1.500717,6.35 L 1.876954,5.973762 L 0.9054042,5.002212 L 0.5291667,5.37845 V 5.820833 H 1.058333 V 6.35 Z M 3.662892,2.513542 c 0,-0.05371 -0.03731,-0.09102 -0.09102,-0.09102 c -0.02487,0 -0.04948,0.0082 -0.07038,0.02884 L 1.26074,4.692121 C 1.240102,4.712758 1.2319,4.737629 1.2319,4.7625 c 0,0.05371 0.03731,0.09102 0.09102,0.09102 c 0.02487,0 0.04948,-0.0082 0.07038,-0.02884 L 3.634052,2.583921 c 0.02064,-0.02064 0.02884,-0.04551 0.02884,-0.07038 z M 3.439583,1.719792 L 5.159375,3.439583 L 1.719792,6.879167 H 0 V 5.159375 Z m 2.823634,0.396875 c 0,0.140493 -0.05794,0.277018 -0.15293,0.372004 L 5.423958,3.175 L 3.704167,1.455208 L 4.390496,0.7731125 C 4.485481,0.6738938 4.622006,0.61595 4.7625,0.61595 c 0.140494,0 0.277019,0.057944 0.376238,0.1571625 L 6.110287,1.740429 c 0.09499,0.09922 0.15293,0.235744 0.15293,0.376238 z"
         style="stroke-width:0.2645833" />
    </symbol>
  </defs>
  <metadata
     id="metadata72655">
    <rdf:RDF>
      <cc:Work
         rdf:about="">
        <dc:format>image/svg+xml</dc:format>
        <dc:type
           rdf:resource="http://purl.org/dc/dcmitype/StillImage" />
        <dc:title>pencil</dc:title>
      </cc:Work>
    </rdf:RDF>
  </metadata>
  <g
     transform="translate(0,-270.5416)"
     id="layer1">
    <use
       height="100%"
       width="100%"
       y="0"
       x="0"
       xlink:href="#icon-pencil"
       style="fill:black;stroke:none"
       transform="matrix(3.799964,0,0,3.799964,-19.6426,269.6824)"
       id="use298979" />
  </g>
</svg>
