<svg id="SVGRoot" xmlns="http://www.w3.org/2000/svg" version="1.1" viewBox="0 0 100 100">
 <g aria-label="">
  <path stroke-width="2.2793" d="m89.074 77.677c0 0.86491-0.76316 1.6281-1.6281 1.6281h-74.892c-0.86491 0-1.6281-0.76316-1.6281-1.6281v-39.073c1.0684 1.221 2.2386 2.3404 3.5105 3.3579 7.2754 5.5965 14.602 11.295 21.674 17.196 3.8158 3.2053 8.5474 7.1228 13.839 7.1228h0.1019c5.2912 0 10.023-3.9175 13.839-7.1228 7.071-5.902 14.398-11.6 21.673-17.197 1.2719-1.0175 2.4421-2.1368 3.5105-3.3579zm0-53.472c0 4.3246-4.1719 9.9719-7.4789 12.567-6.8175 5.3421-13.635 10.735-20.402 16.128-2.6965 2.1877-7.5807 6.8684-11.142 6.8684h-0.1019c-3.5614 0-8.4456-4.6807-11.142-6.8684-6.767-5.393-13.584-10.786-20.402-16.128-4.579-3.612-7.479-8.649-7.479-14.449 0-0.86491 0.76316-1.6281 1.6281-1.6281h74.891c1.9333 0 1.6281 2.2386 1.6281 3.5105zm6.5123-1.8825c0-4.4772-3.6632-8.1403-8.1404-8.1403h-74.892c-4.4772 0-8.1403 3.6632-8.1403 8.1403v55.354c0 4.4772 3.6632 8.1403 8.1403 8.1403h74.891c4.4772 0 8.1404-3.6632 8.1404-8.1403z"/>
 </g>
</svg>
