<svg xmlns="http://www.w3.org/2000/svg" id="SVGRoot" version="1.1" viewBox="0 0 100 100">
    <g>
        <g aria-label="">
            <path stroke-width="2.5039" d="m74.43 27.979c-0.50302-0.50302-1.1737-0.83837-1.9003-0.83837-0.22356 0-0.44712 0.0559-0.67069 0.11179l-22.133 5.477 9.557-25.878c0.168-0.335 0.28-0.6704 0.28-1.0057 0-1.2855-1.1178-2.3474-2.5151-2.3474h-18.333c-1.1737 0-2.1797 0.72658-2.4592 1.7885l-11.234 46.11c-0.16767 0.78247 0.0559 1.6208 0.72658 2.1797 0.44713 0.39123 1.1178 0.61479 1.7326 0.61479 0.22356 0 0.44712 0 0.67068-0.0559l22.691-5.645-11.011 45.16c-0.27945 1.1737 0.44713 2.3474 1.6767 2.7386 0.27945 0.0559 0.5589 0.11178 0.78247 0.11178 1.006 0 1.9003-0.5589 2.3474-1.3973l30.182-64.667c0.39124-0.83836 0.22357-1.7885-0.39123-2.4592z"/>
        </g>
    </g>
</svg>
