<svg id="SVGRoot" xmlns="http://www.w3.org/2000/svg" version="1.1" viewBox="0 0 100 100">
 <g aria-label="">
  <path stroke-width="2.5144" d="m21.264 78.736c0 1.9644-1.6276 3.592-3.592 3.592s-3.592-1.6276-3.592-3.592 1.6276-3.592 3.592-3.592 3.592 1.6276 3.592 3.592zm64.656-32.328c0 2.0766-1.5715 7.1279-4.2094 7.1841 1.1786 1.347 1.9644 3.9849 1.9644 5.7809 0 2.6379-1.0664 4.8829-2.9746 6.6789 0.6735 1.1786 1.0103 2.5256 1.0103 3.8727 0 2.5818-1.2909 5.7809-3.6482 7.0718 0.16837 1.0103 0.28062 2.0766 0.28062 3.143 0 6.8473-4.4339 9.373-10.776 9.373h-6.791c-6.6228 0-13.021-1.9644-19.195-4.0972-3.031-1.067-8.194-3.088-11.337-3.088h-1.796v-35.92h1.796c4.4339 0 11.113-9.5975 13.638-12.853 1.4031-1.7399 2.7502-3.4798 4.3217-5.1074 5.4442-5.7248 3.592-14.312 7.1841-17.96 7.6892 0 8.9801 4.2094 8.9801 10.776 0 6.6228-5.388 11.393-5.388 17.96h19.756c3.7604 0 7.1841 3.3675 7.1841 7.1841zm7.1841-0.0561c0-7.7453-6.6228-14.312-14.368-14.312h-9.8781c1.6838-3.4798 2.694-6.8473 2.694-10.776 0-3.7604-0.2245-7.0157-1.9644-10.439-2.75-5.4448-8.363-7.5214-14.2-7.5214-1.9083 0-3.7043 0.78576-5.0513 2.0766-5.613 5.5008-3.817 14.368-7.184 17.96-2.1328 2.3012-4.0972 4.7145-6.0054 7.1841-1.6838 2.1889-5.5003 7.2402-7.6892 8.6994h-15.379c-3.9849 0-7.1841 3.1992-7.1841 7.1841v35.92c0 3.9849 3.1992 7.1841 7.1841 7.1841h16.164c1.5715 0 6.1177 1.6838 7.7453 2.245 7.4086 2.5818 14.817 4.939 22.787 4.939h7.2402c10.383 0 17.623-6.2299 17.511-16.838 2.1889-2.8063 3.3675-6.3983 3.3675-9.9903 0-0.78576-0.0561-1.6276-0.16838-2.4134 1.4031-2.4695 2.1328-5.2758 2.1328-8.0821 0-1.2909-0.16837-2.6379-0.50513-3.8727 1.796-2.694 2.7502-5.8932 2.7502-9.1485z"/>
 </g>
</svg>
