<svg xmlns="http://www.w3.org/2000/svg" version="1.1" viewBox="0 0 100 100">
 <g transform="translate(0 -270.54)">
  <g aria-label="">
   <path stroke-width="2.5705" d="m75.079 297.93c-0.51639-0.5164-1.2049-0.8607-1.9508-0.8607-0.22951 0-0.45902 0.057-0.68853 0.1148l-22.722 5.623 9.8116-26.566c0.17213-0.3443 0.28688-0.6885 0.28688-1.0328 0-1.3197-1.1476-2.4098-2.582-2.4098h-18.819c-1.2049 0-2.2377 0.7459-2.5246 1.836l-11.533 47.336c-0.17213 0.8033 0.0574 1.6639 0.74591 2.2377 0.45902 0.4016 1.1476 0.6312 1.7787 0.6312 0.22951 0 0.45902 0 0.68853-0.057l23.295-5.7951-11.303 46.361c-0.28689 1.2049 0.45902 2.4098 1.7213 2.8115 0.28688 0.057 0.57377 0.1147 0.80328 0.1147 1.0328 0 1.9508-0.5737 2.4099-1.4344l30.984-66.386c0.40164-0.8606 0.22951-1.8361-0.40165-2.5246z"/>
  </g>
 </g>
</svg>
