<svg xmlns="http://www.w3.org/2000/svg" id="SVGRoot" version="1.1" viewBox="0 0 100 100">
    <path stroke-width="2.3166" d="m30.868 77.406c0-3.6713-2.9474-6.6187-6.6187-6.6187-3.6196 0-6.6187 2.9474-6.6187 6.6187 0 3.6196 2.9991 6.6187 6.6187 6.6187 3.6713 0 6.6187-2.9991 6.6187-6.6187zm25.751 10.652c0-3.6713-2.9474-6.6187-6.6187-6.6187s-6.6187 2.9474-6.6187 6.6187 2.9474 6.6187 6.6187 6.6187 6.6187-2.9474 6.6187-6.6187zm-36.403-36.403c0-3.6713-2.9474-6.6187-6.6187-6.6187s-6.6187 2.9474-6.6187 6.6187 2.9474 6.6187 6.6187 6.6187 6.6187-2.9474 6.6187-6.6187zm62.154 25.751c0-3.6713-2.9991-6.6187-6.6187-6.6187-3.6713 0-6.6187 2.9474-6.6187 6.6187 0 3.6196 2.9474 6.6187 6.6187 6.6187 3.6196 0 6.6187-2.9991 6.6187-6.6187zm-49.848-51.502c0-4.5504-3.723-8.2734-8.2734-8.2734s-8.2734 3.723-8.2734 8.2734 3.723 8.2734 8.2734 8.2734 8.2734-3.723 8.2734-8.2734zm60.499 25.751c0-3.6713-2.9474-6.6187-6.6187-6.6187s-6.6187 2.9474-6.6187 6.6187 2.9474 6.6187 6.6187 6.6187 6.6187-2.9474 6.6187-6.6187zm-33.093-36.403c0-5.4814-4.447-9.9283-9.928-9.9283-5.4811 0-9.9281 4.447-9.9281 9.9281s4.447 9.9281 9.9281 9.9281 9.9281-4.447 9.9281-9.9281zm27.406 10.652c0-6.3602-5.2226-11.583-11.583-11.583-6.4119 0-11.583 5.2226-11.583 11.583 0 6.4119 5.1709 11.583 11.583 11.583 6.3602 0 11.583-5.1709 11.583-11.583z"/>
</svg>
