<svg xmlns="http://www.w3.org/2000/svg" width="100px" height="100px" version="1.1" viewBox="0 0 100 100">
    <path stroke-width="2.6531" d="m65.102 53.79l-5.627 11.371h-18.95l-5.627-11.371h-18.714c0.11844-0.29611 0.17766-0.65144 0.29611-0.94755l12.555-29.373h41.929l12.555 29.374c0.11845 0.29611 0.17767 0.65144 0.29611 0.94755zm30.381 1.7766c0-2.132-0.65144-5.2707-1.4805-7.2843l-14.095-32.691c-0.829-1.954-3.198-3.494-5.271-3.494h-49.272c-2.0728 0-4.4416 1.5398-5.2707 3.4941l-14.095 32.691c-0.82911 2.0136-1.4805 5.1523-1.4805 7.2843v28.545c0 2.0728 1.7174 3.7902 3.7902 3.7902h83.384c2.0728 0 3.7902-1.7174 3.7902-3.7902z"/>
</svg>
