<?xml version="1.0" encoding="UTF-8" standalone="no"?>
<!-- Created with Inkscape (http://www.inkscape.org/) -->

<svg
   xmlns:dc="http://purl.org/dc/elements/1.1/"
   xmlns:cc="http://creativecommons.org/ns#"
   xmlns:rdf="http://www.w3.org/1999/02/22-rdf-syntax-ns#"
   xmlns:svg="http://www.w3.org/2000/svg"
   xmlns="http://www.w3.org/2000/svg"
   xmlns:xlink="http://www.w3.org/1999/xlink"
   xmlns:sodipodi="http://sodipodi.sourceforge.net/DTD/sodipodi-0.dtd"
   xmlns:inkscape="http://www.inkscape.org/namespaces/inkscape"
   width="100"
   height="100"
   viewBox="0 0 100 100"
   version="1.1"
   id="svg72658"
   inkscape:version="0.92.1 r15371"
   sodipodi:docname="briefcase.svg">
  <title
     id="title153962">briefcase</title>
  <defs
     id="defs72652">
    <symbol
       id="icon-briefcase"
       viewBox="0 0 28 28">
      <title
         id="title78693">briefcase</title>
      <path
         style="stroke-width:0.2645833"
         inkscape:connector-curvature="0"
         d="M 2.645833,1.058333 H 4.7625 V 0.5291667 H 2.645833 Z m 4.7625,2.645834 V 5.688542 C 7.408333,6.052344 7.110677,6.35 6.746875,6.35 H 0.6614583 C 0.2976562,6.35 0,6.052344 0,5.688542 V 3.704167 h 2.778125 v 0.661458 c 0,0.144727 0.119856,0.264583 0.264583,0.264583 h 1.322917 c 0.144727,0 0.264583,-0.119856 0.264583,-0.264583 V 3.704167 Z m -3.175,0 V 4.233333 H 3.175 V 3.704167 Z m 3.175,-1.984375 v 1.5875 H 0 v -1.5875 C 0,1.35599 0.2976562,1.058333 0.6614583,1.058333 H 2.116667 V 0.396875 C 2.116667,0.1778 2.294467,0 2.513542,0 h 2.38125 c 0.219075,0 0.396875,0.1778 0.396875,0.396875 v 0.661458 h 1.455208 c 0.363802,0 0.661458,0.297657 0.661458,0.661459 z"
         id="path78695" />
    </symbol>
  </defs>
  <sodipodi:namedview
     id="base"
     pagecolor="#ffffff"
     bordercolor="#666666"
     borderopacity="1.0"
     inkscape:pageopacity="0.0"
     inkscape:pageshadow="2"
     inkscape:zoom="8.64"
     inkscape:cx="50"
     inkscape:cy="50"
     inkscape:document-units="mm"
     inkscape:current-layer="layer1"
     showgrid="false"
     units="px"
     inkscape:pagecheckerboard="true"
     inkscape:window-width="1920"
     inkscape:window-height="1056"
     inkscape:window-x="0"
     inkscape:window-y="504"
     inkscape:window-maximized="1" />
  <metadata
     id="metadata72655">
    <rdf:RDF>
      <cc:Work
         rdf:about="">
        <dc:format>image/svg+xml</dc:format>
        <dc:type
           rdf:resource="http://purl.org/dc/dcmitype/StillImage" />
        <dc:title>briefcase</dc:title>
      </cc:Work>
    </rdf:RDF>
  </metadata>
  <g
     inkscape:label="Ebene 1"
     inkscape:groupmode="layer"
     id="layer1"
     transform="translate(0,-270.5416)">
    <use
       id="use153578"
       transform="matrix(3.212598,0,0,3.212598,7.500008,284.113)"
       style="fill:black;stroke:none"
       xlink:href="#icon-briefcase"
       x="0"
       y="0"
       width="100%"
       height="100%" />
  </g>
</svg>
