<?xml version="1.0" encoding="UTF-8" standalone="no"?>
<!-- Created with Inkscape (http://www.inkscape.org/) -->

<svg
   xmlns:dc="http://purl.org/dc/elements/1.1/"
   xmlns:cc="http://creativecommons.org/ns#"
   xmlns:rdf="http://www.w3.org/1999/02/22-rdf-syntax-ns#"
   xmlns:svg="http://www.w3.org/2000/svg"
   xmlns="http://www.w3.org/2000/svg"
   xmlns:sodipodi="http://sodipodi.sourceforge.net/DTD/sodipodi-0.dtd"
   xmlns:inkscape="http://www.inkscape.org/namespaces/inkscape"
   width="100px"
   height="100px"
   viewBox="0 0 100 100"
   version="1.1"
   id="SVGRoot"
   inkscape:version="0.92.1 r15371"
   sodipodi:docname="flash.svg">
  <sodipodi:namedview
     id="base"
     pagecolor="#ffffff"
     bordercolor="#666666"
     borderopacity="1.0"
     inkscape:pageopacity="0.0"
     inkscape:pageshadow="2"
     inkscape:zoom="2.56"
     inkscape:cx="50"
     inkscape:cy="50"
     inkscape:document-units="px"
     inkscape:current-layer="layer1"
     showgrid="false"
     inkscape:window-width="1920"
     inkscape:window-height="1056"
     inkscape:window-x="0"
     inkscape:window-y="504"
     inkscape:window-maximized="1"
     inkscape:grid-bbox="true"
     inkscape:pagecheckerboard="true" />
  <defs
     id="defs10" />
  <metadata
     id="metadata13">
    <rdf:RDF>
      <cc:Work
         rdf:about="">
        <dc:format>image/svg+xml</dc:format>
        <dc:type
           rdf:resource="http://purl.org/dc/dcmitype/StillImage" />
        <dc:title></dc:title>
      </cc:Work>
    </rdf:RDF>
  </metadata>
  <g
     id="layer1"
     inkscape:groupmode="layer"
     inkscape:label="Ebene 1">
    <text
       xml:space="preserve"
       style="font-style:normal;font-variant:normal;font-weight:normal;font-stretch:normal;font-size:40px;line-height:1.25;font-family:FontAwesome;-inkscape-font-specification:FontAwesome;letter-spacing:0px;word-spacing:0px;fill:black;fill-opacity:1;stroke:none"
       x="-19.14062"
       y="66.79688"
       id="text734"><tspan
         sodipodi:role="line"
         id="tspan732"
         x="-19.14062"
         y="106.0826"></tspan></text>
    <g
       aria-label=""
       style="font-style:normal;font-variant:normal;font-weight:normal;font-stretch:normal;font-size:100.15625px;line-height:1.25;font-family:FontAwesome;-inkscape-font-specification:FontAwesome;letter-spacing:0px;word-spacing:0px;fill:black;fill-opacity:1;stroke:none;stroke-width:2.5039062"
       id="text738">
      <path
         d="m 74.42955,27.97904 c -0.50302,-0.50302 -1.17371,-0.83837 -1.90029,-0.83837 c -0.22356,0 -0.44712,0.0559 -0.67069,0.11179 L 49.72583,32.72975 L 59.28315,6.852327 C 59.45082,6.516982 59.5626,6.181637 59.5626,5.846293 c 0,-1.285488 -1.11781,-2.347412 -2.51508,-2.347412 H 38.71535 c -1.17371,0 -2.17974,0.72658 -2.45919,1.788504 L 25.02211,51.39727 c -0.16767,0.78247 0.0559,1.62083 0.72658,2.17974 c 0.44713,0.39123 1.11782,0.61479 1.73262,0.61479 c 0.22356,0 0.44712,0 0.67068,-0.0559 L 50.84364,48.49095 L 39.83316,93.65068 c -0.27945,1.17371 0.44713,2.34742 1.67673,2.73865 c 0.27945,0.0559 0.5589,0.11178 0.78247,0.11178 c 1.00603,0 1.90028,-0.5589 2.34741,-1.39727 L 74.82078,30.43823 c 0.39124,-0.83836 0.22357,-1.78851 -0.39123,-2.45919 z"
         style="stroke-width:2.5039062"
         id="path740" />
    </g>
  </g>
</svg>
