<?xml version="1.0" encoding="UTF-8" standalone="no"?>
<!-- Created with Inkscape (http://www.inkscape.org/) -->

<svg
   xmlns:dc="http://purl.org/dc/elements/1.1/"
   xmlns:cc="http://creativecommons.org/ns#"
   xmlns:rdf="http://www.w3.org/1999/02/22-rdf-syntax-ns#"
   xmlns:svg="http://www.w3.org/2000/svg"
   xmlns="http://www.w3.org/2000/svg"
   xmlns:sodipodi="http://sodipodi.sourceforge.net/DTD/sodipodi-0.dtd"
   xmlns:inkscape="http://www.inkscape.org/namespaces/inkscape"
   width="100"
   height="100"
   viewBox="0 0 100 100"
   version="1.1"
   id="svg72658"
   inkscape:version="0.92.1 r15371"
   sodipodi:docname="bath.svg">
  <defs
     id="defs72652" />
  <sodipodi:namedview
     id="base"
     pagecolor="#ffffff"
     bordercolor="#666666"
     borderopacity="1.0"
     inkscape:pageopacity="0.0"
     inkscape:pageshadow="2"
     inkscape:zoom="8.64"
     inkscape:cx="50"
     inkscape:cy="50"
     inkscape:document-units="mm"
     inkscape:current-layer="layer1"
     showgrid="false"
     units="px"
     inkscape:pagecheckerboard="true"
     inkscape:window-width="1920"
     inkscape:window-height="1056"
     inkscape:window-x="0"
     inkscape:window-y="504"
     inkscape:window-maximized="1" />
  <metadata
     id="metadata72655">
    <rdf:RDF>
      <cc:Work
         rdf:about="">
        <dc:format>image/svg+xml</dc:format>
        <dc:type
           rdf:resource="http://purl.org/dc/dcmitype/StillImage" />
        <dc:title></dc:title>
      </cc:Work>
    </rdf:RDF>
  </metadata>
  <g
     inkscape:label="Ebene 1"
     inkscape:groupmode="layer"
     id="layer1"
     transform="translate(0,-270.5416)">
    <g
       aria-label="ï‹"
       style="font-style:normal;font-variant:normal;font-weight:normal;font-stretch:normal;font-size:91.9675903px;line-height:1.25;font-family:FontAwesome;-inkscape-font-specification:FontAwesome;letter-spacing:0px;word-spacing:0px;fill:black;fill-opacity:1;stroke:none;stroke-width:2.2991898"
       id="text33">
      <path
         d="M 89.41468,330.3953 H 10.58532 v 9.8537 c 0,5.8506 2.56606,11.034 6.56911,14.6778 v 9.5458 c 0,1.1291 0.7185,2.0528 1.64228,2.0528 h 3.28456 c 0.92378,0 1.64228,-0.9237 1.64228,-2.0528 v -5.6453 c 2.05284,0.7185 4.25966,1.129 6.56911,1.129 h 39.41468 c 2.30945,0 4.51627,-0.4105 6.56911,-1.129 v 6.0559 c 0,0.9237 0.7185,1.6422 1.64228,1.6422 h 3.28456 c 0.92378,0 1.64228,-0.7185 1.64228,-1.6422 v -9.9564 c 4.00305,-3.6438 6.56911,-8.8272 6.56911,-14.6778 z M 40.14633,309.0457 c 0,-0.9238 -0.7185,-1.6423 -1.64228,-1.6423 c -0.92378,0 -1.64228,0.7185 -1.64228,1.6423 c 0,0.9238 0.7185,1.6423 1.64228,1.6423 c 0.92378,0 1.64228,-0.7185 1.64228,-1.6423 z m 3.28456,-3.2846 c 0,-0.9237 -0.7185,-1.6422 -1.64228,-1.6422 c -0.92378,0 -1.64228,0.7185 -1.64228,1.6422 c 0,0.9238 0.7185,1.6423 1.64228,1.6423 c 0.92378,0 1.64228,-0.7185 1.64228,-1.6423 z m -3.28456,-3.2845 c 0,-0.9238 -0.7185,-1.6423 -1.64228,-1.6423 c -0.92378,0 -1.64228,0.7185 -1.64228,1.6423 c 0,0.9238 0.7185,1.6423 1.64228,1.6423 c 0.92378,0 1.64228,-0.7185 1.64228,-1.6423 z m 6.56911,0 c 0,-0.9238 -0.71849,-1.6423 -1.64228,-1.6423 c -0.92378,0 -1.64227,0.7185 -1.64227,1.6423 c 0,0.9238 0.71849,1.6423 1.64227,1.6423 c 0.92379,0 1.64228,-0.7185 1.64228,-1.6423 z m -3.28455,-3.2846 c 0,-0.9238 -0.7185,-1.6423 -1.64228,-1.6423 c -0.92378,0 -1.64228,0.7185 -1.64228,1.6423 c 0,0.9238 0.7185,1.6423 1.64228,1.6423 c 0.92378,0 1.64228,-0.7185 1.64228,-1.6423 z m -3.28456,-3.2845 c 0,-0.9238 -0.7185,-1.6423 -1.64228,-1.6423 c -0.92378,0 -1.64228,0.7185 -1.64228,1.6423 c 0,0.9237 0.7185,1.6422 1.64228,1.6422 c 0.92378,0 1.64228,-0.7185 1.64228,-1.6422 z m 55.83747,26.2764 c 0,-0.9238 -0.7185,-1.6423 -1.64228,-1.6423 H 17.15443 v -32.8455 c 0,-3.6438 2.92531,-6.5691 6.56912,-6.5691 c 1.74492,0 3.33587,0.6671 4.51626,1.7962 c -1.89888,3.4385 -1.59096,7.7495 0.87246,10.8801 l -1.12906,1.1291 c -0.30793,0.3079 -0.30793,0.8211 0,1.129 l 2.15549,2.1555 c 0.30792,0.3079 0.82113,0.3079 1.12906,0 l 16.11486,-16.1148 c 0.30793,-0.308 0.30793,-0.8212 0,-1.1291 l -2.15549,-2.1555 c -0.30793,-0.3079 -0.82114,-0.3079 -1.12907,0 l -1.12906,1.1291 c -2.82267,-2.2068 -6.62044,-2.6687 -9.80235,-1.3857 c -2.4121,-2.4634 -5.74798,-4.0031 -9.4431,-4.0031 c -7.23629,0 -13.13823,5.902 -13.13823,13.1383 v 32.8455 H 5.658483 c -0.923781,0 -1.642278,0.7185 -1.642278,1.6423 v 3.2846 c 0,0.9238 0.718497,1.6423 1.642278,1.6423 H 94.34152 c 0.92378,0 1.64228,-0.7185 1.64228,-1.6423 z M 50,299.192 c 0,-0.9238 -0.7185,-1.6423 -1.64228,-1.6423 c -0.92378,0 -1.64228,0.7185 -1.64228,1.6423 c 0,0.9238 0.7185,1.6423 1.64228,1.6423 C 49.2815,300.8343 50,300.1158 50,299.192 Z m -3.28456,-3.2845 c 0,-0.9238 -0.71849,-1.6423 -1.64228,-1.6423 c -0.92378,0 -1.64227,0.7185 -1.64227,1.6423 c 0,0.9237 0.71849,1.6422 1.64227,1.6422 c 0.92379,0 1.64228,-0.7185 1.64228,-1.6422 z m -3.28455,-3.2846 c 0,-0.9238 -0.7185,-1.6423 -1.64228,-1.6423 c -0.92378,0 -1.64228,0.7185 -1.64228,1.6423 c 0,0.9238 0.7185,1.6423 1.64228,1.6423 c 0.92378,0 1.64228,-0.7185 1.64228,-1.6423 z m 9.85367,3.2846 c 0,-0.9238 -0.7185,-1.6423 -1.64228,-1.6423 C 50.7185,294.2652 50,294.9837 50,295.9075 c 0,0.9237 0.7185,1.6422 1.64228,1.6422 c 0.92378,0 1.64228,-0.7185 1.64228,-1.6422 z M 50,292.6229 c 0,-0.9238 -0.7185,-1.6423 -1.64228,-1.6423 c -0.92378,0 -1.64228,0.7185 -1.64228,1.6423 c 0,0.9238 0.7185,1.6423 1.64228,1.6423 C 49.2815,294.2652 50,293.5467 50,292.6229 Z m -3.28456,-3.2846 c 0,-0.9237 -0.71849,-1.6422 -1.64228,-1.6422 c -0.92378,0 -1.64227,0.7185 -1.64227,1.6422 c 0,0.9238 0.71849,1.6423 1.64227,1.6423 c 0.92379,0 1.64228,-0.7185 1.64228,-1.6423 z m 9.85367,3.2846 c 0,-0.9238 -0.71849,-1.6423 -1.64227,-1.6423 c -0.92379,0 -1.64228,0.7185 -1.64228,1.6423 c 0,0.9238 0.71849,1.6423 1.64228,1.6423 c 0.92378,0 1.64227,-0.7185 1.64227,-1.6423 z m -3.28455,-3.2846 c 0,-0.9237 -0.7185,-1.6422 -1.64228,-1.6422 C 50.7185,287.6961 50,288.4146 50,289.3383 c 0,0.9238 0.7185,1.6423 1.64228,1.6423 c 0.92378,0 1.64228,-0.7185 1.64228,-1.6423 z m 6.56911,0 c 0,-0.9237 -0.7185,-1.6422 -1.64228,-1.6422 c -0.92378,0 -1.64228,0.7185 -1.64228,1.6422 c 0,0.9238 0.7185,1.6423 1.64228,1.6423 c 0.92378,0 1.64228,-0.7185 1.64228,-1.6423 z"
         style="stroke-width:2.2991898"
         id="path99" />
    </g>
  </g>
</svg>
