<svg xmlns="http://www.w3.org/2000/svg" version="1.1" xmlns:xlink="http://www.w3.org/1999/xlink" viewBox="0 0 100 100">
 <title>briefcase</title>
 <defs>
  <symbol id="icon-briefcase" viewBox="0 0 28 28">
   <title>briefcase</title>
   <path stroke-width=".26458" d="m2.6458 1.0583h2.1167v-0.52913h-2.1167zm4.7625 2.6458v1.9844c0 0.3638-0.2976 0.6615-0.6614 0.6615h-6.0854c-0.36384 0-0.6615-0.2977-0.6615-0.6615v-1.9843h2.7781v0.66146c0 0.14473 0.11986 0.26458 0.26458 0.26458h1.3229c0.14473 0 0.26458-0.11986 0.26458-0.26458v-0.6615zm-3.175 0v0.5292h-1.0583v-0.5291zm3.175-1.9844v1.5875h-7.4083v-1.5875c0-0.3637 0.29766-0.6614 0.66146-0.6614h1.4552v-0.66142c0-0.21908 0.1778-0.39688 0.3968-0.39688h2.3812c0.21908 0 0.39688 0.1778 0.39688 0.39688v0.66146h1.4552c0.3638 0 0.66146 0.29766 0.66146 0.66146z"/>
  </symbol>
 </defs>
 <g transform="translate(0 -270.54)">
  <use xlink:href="#icon-briefcase" transform="matrix(3.2126 0 0 3.2126 7.5 284.11)" height="100%" width="100%" y="0" x="0" fill="black"/>
 </g>
</svg>
