<svg version="1" xmlns="http://www.w3.org/2000/svg" width="933.333" height="933.333" viewBox="0 0 700.000000 700.000000"><path d="M149.9 29.6c-38.1 7.2-67.4 36.9-74.6 75.4-1 5.7-1.1 18.5-1.2 129.2L74 349.8l-19.3.4c-26.5.4-26.2.1-26.2 22.8 0 16.4.7 18.9 6 21.5 3 1.3 36 1.5 315.5 1.5 345.2 0 317 .6 320.3-6.3 2.2-4.5 2.1-30.1-.1-33.9-3.6-6.2 18.1-5.8-279.1-5.8h-271l.1-117.8c0-97.5.3-118.6 1.4-123.1 2-7.6 6.8-16.1 12.1-21.4 5.3-5.3 16.7-11.3 23.8-12.6 11.9-2.2 24.9.8 35.5 8l4.8 3.3-2.3 5.2c-4.5 10.2-5.8 16.4-5.9 27.9 0 7.6.6 13.2 1.8 18 1.9 7.2 7 18.1 10.5 22.5l2 2.5-4.6 4.7c-6.9 7.1-6.7 8.2 4 18.8 6.8 6.7 9.8 9 11.7 9 3.7 0 117.4-113.6 117.8-117.7.2-2.4-1.2-4.2-8.7-11.7-10.7-10.7-12.1-11-18.9-4.3l-4.7 4.5-3.5-2.5c-15.8-11.4-40.5-14.9-60.2-8.7l-4.8 1.6-3.7-3.7c-9.7-9.3-26.5-18.2-41-21.6-10.5-2.5-27.7-3.1-37.4-1.3z"/><path d="M309.3 122.1c-4.2 2.6-5.8 7.4-4.3 12.7 2.4 9 15 10.7 19.9 2.8 2.5-4 2.6-6.7.4-11.3-2.8-6-10.2-7.9-16-4.2zM355.4 121.9c-6 3.7-6.8 12.4-1.7 17.5 2.7 2.7 5.7 3.4 11.9 2.7 2.2-.2 6.4-5.4 7-8.6.7-4-1.9-10-5-11.7-3.8-2-8.9-2-12.2.1zM402.2 121.5c-5.6 2.4-7.6 10.6-4.1 16.3 1.7 2.8 7.1 5.4 10.1 4.9 3-.4 7-2.6 8.5-4.6 3.9-5.3 1.7-14.2-4.1-16.6-4.3-1.8-6.2-1.8-10.4 0zM285.1 146c-3.6 3.4-4.7 8.8-2.6 13.3 3.9 8.4 16 8.4 20 .1 2.6-5.6 1.1-11.3-4-14.4-4.5-2.8-9.7-2.4-13.4 1zM333.3 144.5c-7.5 3.2-7.9 15.7-.7 19.6 3.2 1.6 8.6 1.7 11.6 0 7.1-3.7 7.3-15 .4-19.2-3.6-2.2-6.9-2.4-11.3-.4zM378.4 144.9c-8.5 5.2-5.9 18.7 4.1 20.5 12.6 2.4 18.4-15.4 6.9-20.9-4.2-2-7.3-1.9-11 .4zM266.3 166.7c-2.8.6-6.9 4.7-7.7 7.9-.4 1.3-.2 4.2.4 6.4 1.2 4.4 5.9 8 10.5 8 5.9 0 11.5-5.9 11.5-12.1 0-2.2-2.9-7.4-5-8.7-2.1-1.3-7-2.1-9.7-1.5zM310.2 167.5c-9.2 4-6.8 19.2 3.3 21.1 6.3 1.1 13.5-4.7 13.5-11 0-4-3-8.7-6.4-10.1-4.3-1.8-6.2-1.8-10.4 0zM356.3 167.5c-7.7 3.3-8 15.3-.4 19.8 3.2 1.9 9.3 1.4 12.6-1 6.2-4.5 5.4-15.2-1.5-18.8-3.6-1.8-6.5-1.9-10.7 0zM287.3 190.6c-3 1.5-6.3 6.5-6.3 9.7 0 5.7 4.5 10.6 10.6 11.4 12.2 1.7 16.9-16.4 5.5-21.3-4.2-1.8-5.8-1.7-9.8.2zM330.9 192.1c-3.6 3.4-4.6 8.6-2.4 13.2 3.8 8.2 16.1 8.3 19.9.2 2-4.2 2-5.9-.1-10.2-3-6.5-12.1-8.1-17.4-3.2zM264.4 213.5c-3.9 2-6.2 6.1-5.9 10.5.3 4.8.2 4.5 3.5 7.9 2.7 2.7 3.6 2.9 8.1 2.6 5.9-.4 9.4-3.4 10.5-9.2 1.7-8.8-8-15.8-16.2-11.8zM312.3 212.7c-3.2.6-7.2 5.1-7.9 8.8-1.4 7.4 4.8 13.9 12.7 13.3 4.2-.3 8.6-4.6 9.4-9 .8-4-1.3-9.6-4.3-11.4-2.3-1.5-7.1-2.3-9.9-1.7zM289.3 235.7c-3.2.6-7.2 5.1-7.9 8.8-.8 4.4 1.7 10 5.5 11.9 3.7 2 6.2 2 10.7.1 8.6-3.6 7.8-17.1-1.3-20.6-2.5-.9-3.2-.9-7-.2zM264.3 259.6c-7.9 4-7.9 15.2-.1 19.9 9.5 5.6 20.8-5.9 15.2-15.4-3.1-5.2-9.7-7.2-15.1-4.5zM74.3 461.7c.2 23.6.7 43.7.9 44.8.3 1.1.9 4 1.2 6.5 1.3 7.9 6.7 24.2 11.3 33.9 7 14.8 13.6 24.2 26 37.3 5.7 6 6.3 7 6.4 11V630c0 42.4-.2 41.9 23.6 41.9 14.7 0 16.7-.6 20-6.4 2.2-3.8 2.3-5 2.3-25.7v-21.7l4.8 1.5c2.6.8 9.2 2.5 14.7 3.7l10 2.2h152c83.6 0 154.8-.3 158.1-.7 7.3-.9 17.4-3.2 23.2-5.2 2.3-.8 4.4-1.1 4.6-.7.3.4.6 10.6.6 22.7.2 24.1.6 26 6.3 28.8 4.3 2 28.8 2.1 33.1.1 6.2-2.9 6.1-2.4 6.3-42.9l.2-36.9 6.3-6.6c9.2-9.7 11.4-12.4 16.9-20.9 6.6-10.1 12.1-21.5 15.9-33.1 5.8-17.8 6.2-21.8 6.7-68.4l.5-42.7H73.8l.5 42.7z"/></svg>